<svg version="1.2" xmlns="http://www.w3.org/2000/svg" viewBox="0 0 300 106" width="300" height="106"><style>.a{fill:#263872}.b{fill:#fff}.c{fill:#ec8b5d}</style><path class="a" d="m13.4 11.2c0 0 0.9 0.6 1.2 0.7v9.9h-1.2z"/><path class="a" d="m13.5 22.1h1.1c0.5 0 0.4 0.6 0.4 0.8 0 0.2 0.1 0.9-0.3 1-0.4 0-0.9 0-1.2 0-0.3 0-0.5-0.1-0.5-0.5v-1c0-0.3 0.2-0.3 0.5-0.3z"/><path class="a" d="m15.5 28.7h0.4l-1.2-4.3h-1.4l-1.3 4.3h2.9z"/><path class="a" d="m2.3 7.7l49.5-6.8 51.1 6.8-23.6 6.4-0.1 5.3c0 0 15.1 6.4 17.6 20.8 2.4 13.5-2.8 24-7.6 29.8l-0.3 32.8h-50.4v-11.2c0 0-10.9 0.4-14.7-3.4-3.9-3.8-4.4-8.9-3.4-15.1l-11.8-0.3c0 0 3.3-10 5.6-15.9 2.2-6 2.6-8.8 2.6-12 0-3.3 6.1-15.1 8.9-18.1l0.2-12z"/><path class="b" d="m39.9 71.5c0 0-3.9 21.5 18.9 17.9v12.3h28.8v-32.4c0 0 15.3-17.4 3.2-38 0 0-6.8-13.3-30.5-12.5-24.4 0.9-23.2 29.8-23.2 29.8l-7.9 22.6z"/><path class="c" d="m45.7 56.9c-2.2 0-3.9-1.8-3.9-3.9 0-2.1 1.7-3.9 3.9-3.9 2.1 0 3.8 1.8 3.8 3.9 0 2.1-1.7 3.9-3.8 3.9z"/><path class="b" d="m24.2 56.9c-2.1 0-3.9-1.8-3.9-3.9 0-2.1 1.8-3.9 3.9-3.9 2.1 0 3.9 1.8 3.9 3.9 0 2.1-1.8 3.9-3.9 3.9z"/><path class="c" d="m52.4 45.8c-0.3 0-1.1-0.7-1.4-0.9-1.2-0.8-4.3-3.2-3.5-6.3 0.6-2.7 2.1-3.9 2.9-4.3q0.5-0.3 0.6-0.8c0.6-1.3 2.1-4.5 4.8-4.7 3.3-0.2 3.7-1.2 4.3-2 0.6-0.9 2.8-1.6 4.5-1.1 1.7 0.5 2.8 0.8 3.4 0.3 0.6-0.5 4.8-0.9 6.4 0.2 1.5 1 3.2 0.9 4.1 1 1 0.1 3.9 2.3 4.1 3.1 0.2 0.8 3.7 2.6 4 5 0.3 2.3 0.3 4.1 1 4.8 0.7 0.6 0 3.9-0.7 5.7-0.7 1.7-1.8 4.1-3.5 5.6-1.7 1.4-3.6 2.8-4.3 4.1-0.4 0.7-0.5 1.9-0.6 2.7 0 0.8-0.7 1.4-1.5 1.4h-3.9c-0.8 0-1.5-0.7-1.5-1.5 0.1-2.2 0.1-6.1 0.2-7 0-1.3-1.8-2.6-2.8-3.7-1-1.1-1.6-1.3-3.7-2-2.1-0.7-4.4-0.2-5.1 0-0.7 0.2-1.7-0.3-2.7-0.5-0.9-0.2-1.4 0.9-2.3 0.9-0.6 0-2 0-2.8 0z"/><path class="a" d="m111.7 50.2l-2.2 2q-1.2-1.6-2.5-1.6-0.6 0-1 0.3-0.4 0.3-0.4 0.7 0 0.4 0.3 0.8 0.4 0.5 2.3 2.1 1.7 1.4 2.1 1.8 0.9 1 1.3 1.8 0.4 0.9 0.4 1.9 0 2-1.4 3.3-1.3 1.3-3.5 1.3-1.8 0-3-0.9-1.3-0.8-2.2-2.6l2.5-1.6q1.2 2.2 2.7 2.2 0.8 0 1.4-0.5 0.5-0.5 0.5-1.1 0-0.5-0.4-1.1-0.4-0.5-1.8-1.6-2.6-2.2-3.4-3.4-0.8-1.1-0.8-2.3 0-1.7 1.3-2.9 1.3-1.2 3.2-1.2 1.2 0 2.3 0.6 1.1 0.5 2.3 2z"/><path fill-rule="evenodd" class="a" d="m115.2 48h3.2q2.7 0 3.8 0.5 1.2 0.5 1.9 1.6 0.7 1.1 0.7 2.6 0 1.6-0.8 2.7-0.8 1.1-2.3 1.6l3.8 7.2h-3.3l-3.7-6.9h-0.3v6.9h-3zm3 6.3h1q1.5 0 2-0.4 0.6-0.4 0.6-1.3 0-0.5-0.3-0.9-0.3-0.4-0.7-0.5-0.5-0.2-1.7-0.2h-0.9c0 0 0 3.3 0 3.3z"/><path class="a" d="m128 48h8.8v3h-5.7v3h5.7v2.9h-5.7v4.3h5.7v3h-8.8z"/><path class="a" d="m148.2 50.2l-2.3 2q-1.2-1.6-2.4-1.6-0.6 0-1 0.3-0.4 0.3-0.4 0.7 0 0.4 0.3 0.8 0.3 0.5 2.2 2.1 1.8 1.4 2.2 1.8 0.9 1 1.3 1.8 0.4 0.9 0.4 1.9 0 2-1.4 3.3-1.4 1.3-3.6 1.3-1.7 0-3-0.9-1.3-0.8-2.2-2.6l2.6-1.6q1.2 2.2 2.7 2.2 0.8 0 1.3-0.5 0.6-0.5 0.6-1.1 0-0.5-0.4-1.1-0.5-0.5-1.8-1.6-2.7-2.2-3.5-3.4-0.7-1.1-0.7-2.3 0-1.7 1.3-2.9 1.2-1.2 3.1-1.2 1.2 0 2.3 0.6 1.1 0.5 2.4 2z"/><path class="a" d="m151.4 48h3.1v6.1h5.4v-6.1h3.1v16.2h-3.1v-7.1h-5.4v7.1h-3.1z"/><path class="a" d="m165.1 48h9v3.1h-3v13.1h-3.1v-13.1h-2.9c0 0 0-3.1 0-3.1z"/><path fill-rule="evenodd" class="a" d="m181.1 48h3.1l6.2 16.2h-3.1l-1.3-3.3h-6.6l-1.3 3.3h-3.2zm1.6 4.3l-2.2 5.5h4.3z"/><path class="c" d="m199.1 48h8.9v3h-5.8v3h5.8v2.9h-5.8v4.3h5.8v3h-8.9z"/><path fill-rule="evenodd" class="c" d="m210.8 48h3.7q3.5 0 5.2 0.9 1.7 0.9 2.8 2.8 1.2 2 1.2 4.6 0 1.9-0.7 3.5-0.6 1.5-1.7 2.6-1.1 1-2.3 1.4-1.3 0.4-4.5 0.4h-3.7zm3.1 13.1h1.4q2.1 0 3.1-0.4 0.9-0.5 1.5-1.7 0.6-1.1 0.6-2.8 0-2.6-1.4-4-1.3-1.3-4.2-1.3c0 0-1 0-1 0z"/><path class="c" d="m226.5 48h3.1v10.5q0 1.3 0.2 1.9 0.2 0.5 0.8 0.9 0.5 0.3 1.3 0.3 0.8 0 1.4-0.4 0.6-0.3 0.8-0.9 0.2-0.6 0.2-2.2v-10.1h3.1v9.7q0 2.4-0.3 3.3-0.2 1-1 1.9-0.8 0.8-1.8 1.3-1 0.4-2.3 0.4-1.8 0-3.1-0.8-1.3-0.8-1.9-2-0.5-1.3-0.5-4.1c0 0 0-9.7 0-9.7z"/><path class="c" d="m239.4 48h8.9v3.1h-2.9v13.1h-3.1v-13.1h-2.9c0 0 0-3.1 0-3.1z"/><path class="c" d="m250.5 48h8.8v3h-5.8v3h5.8v2.9h-5.8v4.3h5.8v3h-8.8z"/><path class="c" d="m277 50.9l-2.1 2q-2.2-2.3-5-2.3-2.3 0-3.9 1.6-1.6 1.6-1.6 3.9 0 1.6 0.7 2.9 0.7 1.2 2 1.9 1.3 0.7 2.9 0.7 1.3 0 2.4-0.5 1.1-0.5 2.5-1.8l2 2.2q-1.8 1.7-3.3 2.4-1.6 0.7-3.7 0.7-3.8 0-6.2-2.4-2.4-2.4-2.4-6.1 0-2.4 1.1-4.3 1.1-1.9 3.2-3 2-1.2 4.4-1.2 2 0 3.8 0.9 1.9 0.8 3.2 2.4z"/><path class="c" d="m279.7 48h3.1v6.1h5.4v-6.1h3.1v16.2h-3.1v-7.1h-5.4v7.1h-3.1c0 0 0-16.2 0-16.2z"/><path class="a" d="m204.7 79.2c0-5 4.1-9 9-9h71.3c4.9 0 9 4 9 9v7c0 5-4.1 9-9 9h-71.3c-4.9 0-9-4-9-9z"/><path class="b" d="m219.1 76.9h1v9.6h4.1v1h-5.1z"/><path class="b" d="m226.9 76.5q0.3 0 0.6 0.2 0.2 0.3 0.2 0.6 0 0.3-0.2 0.6-0.3 0.2-0.6 0.2-0.4 0-0.6-0.2-0.2-0.3-0.2-0.6 0-0.3 0.2-0.6 0.2-0.2 0.6-0.2zm-0.5 3.2h1v7.8h-1z"/><path class="b" d="m233.5 76.7v1q-0.5-0.3-0.9-0.3-0.3 0-0.5 0.1-0.2 0.2-0.2 0.3-0.1 0.2-0.1 0.8v1.1h1.6v0.9h-1.6v6.9h-1v-6.9h-1v-0.9h1v-1.2q0-0.9 0.1-1.2 0.2-0.4 0.6-0.6 0.3-0.2 0.9-0.2 0.5 0 1.1 0.2z"/><path fill-rule="evenodd" class="b" d="m242.4 84.9l0.8 0.4q-0.4 0.9-1 1.4-0.5 0.5-1.2 0.7-0.7 0.3-1.5 0.3-1.9 0-3-1.3-1.1-1.2-1.1-2.8 0-1.5 0.9-2.6 1.2-1.5 3.1-1.5 2 0 3.2 1.5 0.8 1.1 0.9 2.7h-7.1q0.1 1.3 0.9 2.2 0.8 0.9 2.1 0.9 0.6 0 1.1-0.2 0.6-0.2 1-0.6 0.4-0.3 0.9-1.1zm0-2.1q-0.2-0.8-0.6-1.3-0.4-0.5-1-0.8-0.7-0.3-1.4-0.3-1.1 0-2 0.8-0.6 0.5-0.9 1.6z"/><path class="b" d="m250.2 85.5l0.9-0.5q0.9 1.7 2.2 1.7 0.5 0 0.9-0.2 0.5-0.3 0.8-0.7 0.2-0.4 0.2-0.9 0-0.5-0.4-1-0.5-0.7-1.8-1.7-1.3-1-1.6-1.4-0.6-0.8-0.6-1.7 0-0.6 0.4-1.2 0.3-0.6 0.9-0.9 0.6-0.3 1.3-0.3 0.7 0 1.4 0.3 0.6 0.4 1.4 1.4l-0.9 0.7q-0.6-0.8-1-1.1-0.4-0.2-0.9-0.2-0.7 0-1.1 0.3-0.4 0.4-0.4 1 0 0.3 0.2 0.7 0.1 0.3 0.5 0.7 0.2 0.2 1.4 1 1.3 1 1.8 1.8 0.5 0.8 0.5 1.6 0 1.2-0.8 2-0.9 0.9-2.1 0.9-1 0-1.8-0.6-0.8-0.5-1.4-1.7z"/><path class="b" d="m259.2 76.7h1.1v6.1l3.6-3.1h1.5l-4.3 3.7 4.5 4.1h-1.4l-3.9-3.5v3.5h-1.1c0 0 0-10.8 0-10.8z"/><path class="b" d="m267.8 76.5q0.4 0 0.6 0.2 0.3 0.3 0.3 0.6 0 0.3-0.3 0.6-0.2 0.2-0.6 0.2-0.3 0-0.6-0.2-0.2-0.3-0.2-0.6 0-0.3 0.2-0.6 0.3-0.2 0.6-0.2zm-0.5 3.2h1v7.8h-1z"/><path class="b" d="m271.1 76.7h1v10.8h-1z"/><path class="b" d="m274.9 76.7h1v10.8h-1z"/><path class="b" d="m282.8 80.5l-0.7 0.7q-0.8-0.8-1.6-0.8-0.5 0-0.8 0.3-0.4 0.4-0.4 0.8 0 0.4 0.3 0.7 0.3 0.4 1.2 0.9 1.2 0.5 1.6 1.1 0.4 0.5 0.4 1.2 0 1-0.7 1.6-0.7 0.7-1.7 0.7-0.7 0-1.3-0.3-0.6-0.3-1-0.8l0.6-0.7q0.8 0.8 1.7 0.8 0.6 0 1-0.3 0.4-0.4 0.4-1 0-0.4-0.3-0.7-0.3-0.4-1.2-0.9-1.1-0.5-1.5-1-0.4-0.6-0.4-1.2 0-0.9 0.6-1.5 0.7-0.6 1.6-0.6 1.1 0 2.2 1z"/><path fill-rule="evenodd" class="a" d="m268.4 28.6c0-1.1 0.9-2 2-2h18.1c1.1 0 2 0.9 2 2v14.8c0 1.1-0.9 2-2 2h-18.1c-1.1 0-2-0.9-2-2zm0.5 0v14.9c0 0.8 0.7 1.5 1.5 1.5h18.1c0.8 0 1.4-0.7 1.4-1.5v-14.9c0-0.8-0.6-1.5-1.4-1.5h-18.1c-0.8 0-1.5 0.7-1.5 1.5z"/><path fill-rule="evenodd" class="a" d="m290.2 31.7h-21.5c-0.2 0-0.3-0.1-0.3-0.2v-2.9c0-1.1 0.9-2 2-2h18.1c1.1 0 2 0.9 2 2v2.9c0 0.1-0.2 0.2-0.3 0.2zm-0.3-0.5v-2.6c0-0.9-0.6-1.5-1.4-1.5h-18.1c-0.8 0-1.5 0.6-1.5 1.5v2.6z"/><path class="a" d="m288.5 29.4h-8.2c-0.1 0-0.2-0.1-0.2-0.3 0-0.1 0.1-0.2 0.2-0.2h8.2c0.1 0 0.2 0.1 0.2 0.2 0 0.2-0.1 0.3-0.2 0.3z"/><path fill-rule="evenodd" class="a" d="m271.2 30.2c-0.6 0-1.1-0.5-1.1-1.1 0-0.5 0.5-1 1.1-1 0.6 0 1.1 0.5 1.1 1 0 0.6-0.5 1.1-1.1 1.1zm0.6-1.1c0-0.3-0.3-0.5-0.6-0.5-0.3 0-0.5 0.2-0.5 0.5 0 0.4 0.2 0.6 0.5 0.6 0.3 0 0.6-0.2 0.6-0.6z"/><path fill-rule="evenodd" class="a" d="m274.5 30.2c-0.6 0-1-0.5-1-1.1 0-0.5 0.4-1 1-1 0.6 0 1.1 0.5 1.1 1 0 0.6-0.5 1.1-1.1 1.1zm0.6-1.1c0-0.3-0.3-0.5-0.6-0.5-0.3 0-0.5 0.2-0.5 0.5 0 0.4 0.2 0.6 0.5 0.6 0.3 0 0.6-0.2 0.6-0.6z"/><path fill-rule="evenodd" class="a" d="m277.8 30.2c-0.6 0-1-0.5-1-1.1 0-0.5 0.4-1 1-1 0.6 0 1.1 0.5 1.1 1 0 0.6-0.5 1.1-1.1 1.1zm0.6-1.1c0-0.3-0.3-0.5-0.6-0.5-0.3 0-0.5 0.2-0.5 0.5 0 0.4 0.2 0.6 0.5 0.6 0.3 0 0.6-0.2 0.6-0.6z"/><path class="c" d="m272.6 44.1c-0.1 0-0.2-0.1-0.2-0.3v-1.5l-0.2 0.2c-0.1 0.1-0.3 0.1-0.4 0-0.1-0.2-0.1-0.3 0-0.4l0.6-0.6q0.2-0.1 0.3-0.1 0.2 0.1 0.2 0.3v2.1c0 0.2-0.1 0.3-0.3 0.3z"/><path class="c" d="m273 44.1h-0.8c-0.1 0-0.2-0.1-0.2-0.3 0-0.1 0.1-0.2 0.2-0.2h0.8c0.1 0 0.3 0.1 0.3 0.2 0 0.2-0.2 0.3-0.3 0.3z"/><path fill-rule="evenodd" class="c" d="m275.2 44.1c-0.6 0-1.1-0.6-1.1-1.4 0-0.7 0.5-1.3 1.1-1.3 0.6 0 1.1 0.6 1.1 1.3 0 0.8-0.5 1.4-1.1 1.4zm0.6-1.4c0-0.4-0.3-0.8-0.6-0.8-0.3 0-0.6 0.4-0.6 0.8 0 0.5 0.3 0.9 0.6 0.9 0.3 0 0.6-0.4 0.6-0.9z"/><path class="c" d="m278 44.1c-0.1 0-0.2-0.1-0.2-0.3v-1.5l-0.2 0.2c-0.1 0.1-0.3 0.1-0.4 0-0.1-0.2-0.1-0.3 0-0.4l0.7-0.6q0.1-0.1 0.2-0.1 0.2 0.1 0.2 0.3v2.1c0 0.2-0.1 0.3-0.3 0.3z"/><path class="c" d="m278.4 44.1h-0.7c-0.2 0-0.3-0.1-0.3-0.3 0-0.1 0.1-0.2 0.3-0.2h0.7c0.2 0 0.3 0.1 0.3 0.2 0 0.2-0.1 0.3-0.3 0.3z"/><path fill-rule="evenodd" class="c" d="m280.6 44.1c-0.6 0-1.1-0.6-1.1-1.4 0-0.7 0.5-1.3 1.1-1.3 0.6 0 1.1 0.6 1.1 1.3 0 0.8-0.5 1.4-1.1 1.4zm0.6-1.4c0-0.4-0.2-0.8-0.6-0.8-0.3 0-0.6 0.4-0.6 0.8 0 0.5 0.3 0.9 0.6 0.9 0.4 0 0.6-0.4 0.6-0.9z"/><path class="c" d="m283.5 44.1c-0.2 0-0.3-0.1-0.3-0.3v-1.5l-0.2 0.2c-0.1 0.1-0.2 0.1-0.3 0-0.1-0.2-0.1-0.3 0-0.4l0.6-0.6q0.1-0.1 0.3-0.1 0.1 0.1 0.1 0.3v2.1c0 0.2-0.1 0.3-0.2 0.3z"/><path class="c" d="m283.8 44.1h-0.7c-0.2 0-0.3-0.1-0.3-0.3 0-0.1 0.1-0.2 0.3-0.2h0.7c0.2 0 0.3 0.1 0.3 0.2 0 0.2-0.1 0.3-0.3 0.3z"/><path fill-rule="evenodd" class="c" d="m286.1 44.1c-0.7 0-1.1-0.6-1.1-1.4 0-0.7 0.4-1.3 1.1-1.3 0.6 0 1.1 0.6 1.1 1.3 0 0.8-0.5 1.4-1.1 1.4zm0.5-1.4c0-0.4-0.2-0.8-0.5-0.8-0.4 0-0.6 0.4-0.6 0.8 0 0.5 0.2 0.9 0.6 0.9 0.3 0 0.5-0.4 0.5-0.9z"/><path class="c" d="m272.6 40.1c-0.1 0-0.2-0.1-0.2-0.3v-1.5l-0.2 0.2c-0.1 0.1-0.3 0.1-0.4-0.1-0.1-0.1-0.1-0.2 0-0.3l0.6-0.6q0.2-0.1 0.3-0.1 0.2 0.1 0.2 0.3v2.1c0 0.2-0.1 0.3-0.3 0.3z"/><path class="c" d="m273 40.1h-0.8c-0.1 0-0.2-0.1-0.2-0.3 0-0.1 0.1-0.2 0.2-0.2h0.8c0.1 0 0.3 0.1 0.3 0.2 0 0.2-0.2 0.3-0.3 0.3z"/><path fill-rule="evenodd" class="c" d="m275.2 40.1c-0.6 0-1.1-0.6-1.1-1.4 0-0.7 0.5-1.3 1.1-1.3 0.6 0 1.1 0.6 1.1 1.3 0 0.8-0.5 1.4-1.1 1.4zm0.6-1.4c0-0.4-0.3-0.8-0.6-0.8-0.3 0-0.6 0.4-0.6 0.8 0 0.5 0.3 0.9 0.6 0.9 0.3 0 0.6-0.4 0.6-0.9z"/><path class="c" d="m278 40.1c-0.1 0-0.2-0.1-0.2-0.3v-1.5l-0.2 0.2c-0.1 0.1-0.3 0.1-0.4-0.1-0.1-0.1-0.1-0.2 0-0.3l0.7-0.6q0.1-0.1 0.2-0.1 0.2 0.1 0.2 0.3v2.1c0 0.2-0.1 0.3-0.3 0.3z"/><path class="c" d="m278.4 40.1h-0.7c-0.2 0-0.3-0.1-0.3-0.3 0-0.1 0.1-0.2 0.3-0.2h0.7c0.2 0 0.3 0.1 0.3 0.2 0 0.2-0.1 0.3-0.3 0.3z"/><path fill-rule="evenodd" class="c" d="m280.6 40.1c-0.6 0-1.1-0.6-1.1-1.4 0-0.7 0.5-1.3 1.1-1.3 0.6 0 1.1 0.6 1.1 1.3 0 0.8-0.5 1.4-1.1 1.4zm0.6-1.4c0-0.4-0.2-0.8-0.6-0.8-0.3 0-0.6 0.4-0.6 0.8 0 0.5 0.3 0.9 0.6 0.9 0.4 0 0.6-0.4 0.6-0.9z"/><path class="c" d="m283.5 40.1c-0.2 0-0.3-0.1-0.3-0.3v-1.5l-0.2 0.2c-0.1 0.1-0.2 0.1-0.3-0.1-0.1-0.1-0.1-0.2 0-0.3l0.6-0.6q0.1-0.1 0.3-0.1 0.1 0.1 0.1 0.3v2.1c0 0.2-0.1 0.3-0.2 0.3z"/><path class="c" d="m283.8 40.1h-0.7c-0.2 0-0.3-0.1-0.3-0.3 0-0.1 0.1-0.2 0.3-0.2h0.7c0.2 0 0.3 0.1 0.3 0.2 0 0.2-0.1 0.3-0.3 0.3z"/><path fill-rule="evenodd" class="c" d="m286.1 40.1c-0.7 0-1.1-0.6-1.1-1.4 0-0.7 0.4-1.3 1.1-1.3 0.6 0 1.1 0.6 1.1 1.3 0 0.8-0.5 1.4-1.1 1.4zm0.5-1.4c0-0.4-0.2-0.8-0.5-0.8-0.4 0-0.6 0.4-0.6 0.8 0 0.5 0.2 0.9 0.6 0.9 0.3 0 0.5-0.4 0.5-0.9z"/><path class="c" d="m277.7 36.2q-0.1 0-0.1-0.1l-0.9-0.8c-0.3-0.3-0.3-0.7 0-0.9l0.9-0.9c0.1-0.1 0.2-0.1 0.3 0 0.1 0.1 0.1 0.3 0 0.4l-0.9 0.9q0 0 0 0.1l0.9 0.9c0.1 0.1 0.1 0.2 0 0.3q-0.1 0.1-0.2 0.1z"/><path class="c" d="m281.1 36.2q-0.1 0-0.1-0.1c-0.1-0.1-0.1-0.2 0-0.3l0.9-0.9q0-0.1 0-0.1l-0.9-0.9c-0.1-0.1-0.1-0.3 0-0.4 0.1-0.1 0.2-0.1 0.3 0l0.9 0.9c0.3 0.2 0.3 0.6 0 0.9l-0.9 0.8q0 0.1-0.2 0.1z"/><path class="c" d="m278.6 37.1q0 0-0.1 0c-0.1-0.1-0.2-0.2-0.1-0.3l1.6-4.1c0.1-0.1 0.2-0.2 0.3-0.1 0.2 0 0.2 0.2 0.2 0.3l-1.6 4.1q-0.1 0.1-0.3 0.1z"/><path fill-rule="evenodd" class="a" d="m246 46.4q-0.1 0-0.1 0-0.4-0.1-0.6-0.4-0.2-0.2-0.2-0.5v-1.9h-2c-0.7 0-1.2-0.5-1.2-1.2v-9.5c0-0.7 0.5-1.2 1.2-1.2h15.8c0.6 0 1.2 0.5 1.2 1.2v9.5c0 0.7-0.6 1.2-1.2 1.2h-9l-3.3 2.6q-0.3 0.2-0.6 0.2zm-3.2-14c-0.1 0-0.2 0-0.2 0.2l-0.1 10c0 0.1 0.5 0.2 0.6 0.2l2.7 0.2 0.2 2.9 3.6-2.9 9.8-0.2c0.1 0 0.2-0.1 0.2-0.2l-0.3-10.2c0-0.1 0-0.2-0.2-0.2z"/><path fill-rule="evenodd" class="c" d="m246.1 39.3c-1 0-1.7-0.8-1.7-1.7 0-0.9 0.7-1.6 1.7-1.6 0.9 0 1.6 0.7 1.6 1.6 0 0.9-0.7 1.7-1.6 1.7zm0.6-1.7c0-0.3-0.3-0.6-0.6-0.6-0.4 0-0.7 0.3-0.7 0.6 0 0.4 0.3 0.7 0.7 0.7 0.3 0 0.6-0.3 0.6-0.7zm4.1 1.7c-0.9 0-1.7-0.8-1.7-1.7 0-0.9 0.8-1.6 1.7-1.6 0.9 0 1.6 0.7 1.6 1.6 0 0.9-0.7 1.7-1.6 1.7zm0.6-1.7c0-0.3-0.3-0.6-0.6-0.6-0.4 0-0.7 0.3-0.7 0.6 0 0.4 0.3 0.7 0.7 0.7 0.3 0 0.6-0.3 0.6-0.7zm4.1 1.7c-0.9 0-1.7-0.8-1.7-1.7 0-0.9 0.8-1.6 1.7-1.6 0.9 0 1.6 0.7 1.6 1.6 0 0.9-0.7 1.7-1.6 1.7zm0.6-1.7c0-0.3-0.3-0.6-0.6-0.6-0.4 0-0.7 0.3-0.7 0.6 0 0.4 0.3 0.7 0.7 0.7 0.3 0 0.6-0.3 0.6-0.7z"/><path class="a" d="m263.3 41.6c-0.1 0 0 0-0.1 0l-2.2-1.8c-0.3-0.2-0.4-0.4-0.2-0.6 0.2-0.3 0.4 0.1 0.6 0.2l1.9 1.5-0.1-2.5c0-0.3 0.3-0.3 0.6-0.3l3 0.1-0.2-10.6h-16.7v2.9c0 0.3 0 0.3-0.3 0.3-0.3 0-0.3-0.3-0.3-0.6v-3c0-0.3 0-0.3 0.3-0.3h17c0.3 0 0.5 0.3 0.5 0.5v10.8c0 0.3-0.2 0.5-0.5 0.5l-2.9-0.2 0.1 2.6c0 0.2-0.1 0.4-0.3 0.5 0 0-0.1 0.1-0.2 0z"/></svg>