<svg version="1.2" xmlns="http://www.w3.org/2000/svg" viewBox="0 0 300 110" width="300" height="110"><style>.a{fill:#263872}.b{fill:#fff}.c{fill:#ec8b5d}</style><path class="a" d="m12.9 13.7c0 0 0.8 0.6 1.1 0.7v9.8h-1.1z"/><path class="a" d="m13 24.5h1c0.5 0 0.4 0.6 0.4 0.8 0 0.2 0.1 0.9-0.2 0.9-0.4 0.1-0.9 0-1.2 0-0.3 0-0.6 0-0.6-0.4v-1c0-0.3 0.3-0.3 0.6-0.3z"/><path class="a" d="m15 31.1h0.4l-1.2-4.3h-1.5l-1.2 4.3h2.8z"/><path class="a" d="m1.8 10.2l49.2-6.7 50.8 6.7-23.5 6.3-0.1 5.4c0 0 15 6.3 17.5 20.6 2.4 13.4-2.8 23.8-7.5 29.6l-0.3 32.6h-50.1v-11.1c0 0-10.8 0.4-14.6-3.4-3.8-3.8-4.4-8.8-3.4-15l-11.6-0.3c0 0 3.2-10 5.4-15.8 2.3-5.9 2.7-8.7 2.7-12 0-3.2 6-15 8.8-17.9l0.2-12z"/><path class="b" d="m39.2 73.6c0 0-3.9 21.4 18.7 17.8v12.2h28.7v-32.2c0 0 15.2-17.3 3.1-37.8 0 0-6.7-13.1-30.3-12.3-24.2 0.8-23 29.5-23 29.5l-7.8 22.5z"/><path class="c" d="m44.9 59.1c-2.1 0-3.8-1.8-3.8-3.9 0-2.1 1.7-3.8 3.8-3.8 2.2 0 3.9 1.7 3.9 3.8 0 2.1-1.7 3.9-3.9 3.9z"/><path class="b" d="m23.6 59.1c-2.1 0-3.8-1.8-3.8-3.9 0-2.1 1.7-3.8 3.8-3.8 2.1 0 3.8 1.7 3.8 3.8 0 2.1-1.7 3.9-3.8 3.9z"/><path class="c" d="m51.6 48c-0.3 0-1.1-0.6-1.4-0.8-1.2-0.9-4.3-3.2-3.5-6.3 0.7-2.7 2.2-3.9 2.9-4.3q0.5-0.2 0.7-0.7c0.5-1.4 2-4.6 4.6-4.7 3.4-0.2 3.7-1.2 4.3-2 0.7-0.9 2.9-1.7 4.5-1.2 1.7 0.5 2.8 0.9 3.4 0.4 0.6-0.5 4.8-0.9 6.3 0.1 1.6 1.1 3.2 1 4.2 1.1 0.9 0.1 3.8 2.3 4 3.1 0.2 0.7 3.7 2.6 4 4.9 0.2 2.3 0.2 4.1 0.9 4.8 0.7 0.6 0 3.8-0.7 5.6-0.7 1.8-1.7 4.2-3.4 5.6-1.7 1.4-3.6 2.8-4.3 4.1-0.4 0.7-0.5 1.8-0.6 2.7 0 0.8-0.7 1.4-1.4 1.4h-3.9c-0.8 0-1.5-0.7-1.5-1.5 0-2.2 0.1-6.1 0.1-7 0.1-1.3-1.7-2.5-2.7-3.7-1-1.1-1.6-1.2-3.7-1.9-2.1-0.7-4.4-0.2-5.1 0-0.7 0.2-1.7-0.3-2.6-0.5-0.9-0.2-1.5 0.8-2.3 0.8-0.6 0-2 0-2.8 0z"/><path class="b" d="m110.5 52.5l-2.2 2q-1.2-1.7-2.5-1.7-0.6 0-0.9 0.3-0.4 0.3-0.4 0.7 0 0.4 0.2 0.8 0.4 0.5 2.3 2.1 1.7 1.4 2.1 1.8 0.9 1 1.3 1.8 0.4 0.9 0.4 1.9 0 2-1.4 3.2-1.3 1.3-3.5 1.3-1.7 0-3-0.8-1.3-0.8-2.2-2.6l2.6-1.6q1.1 2.1 2.6 2.1 0.8 0 1.4-0.4 0.5-0.5 0.5-1.1 0-0.5-0.4-1.1-0.4-0.5-1.8-1.6-2.6-2.2-3.4-3.3-0.7-1.2-0.7-2.4 0-1.6 1.2-2.8 1.3-1.2 3.2-1.2 1.2 0 2.3 0.5 1.1 0.6 2.3 2.1z"/><path fill-rule="evenodd" class="b" d="m113.9 50.3h3.3q2.6 0 3.8 0.5 1.1 0.4 1.8 1.5 0.7 1.1 0.7 2.6 0 1.6-0.8 2.7-0.8 1-2.3 1.6l3.8 7.1h-3.3l-3.6-6.8h-0.3v6.8h-3.1zm3.1 6.3h0.9q1.5 0 2-0.4 0.6-0.4 0.6-1.3 0-0.5-0.3-0.9-0.2-0.4-0.7-0.5-0.5-0.2-1.7-0.2h-0.8c0 0 0 3.3 0 3.3z"/><path class="b" d="m126.7 50.3h8.8v3h-5.8v2.9h5.8v2.9h-5.8v4.2h5.8v3h-8.8z"/><path class="b" d="m146.7 52.5l-2.2 2q-1.2-1.7-2.5-1.7-0.6 0-0.9 0.3-0.4 0.3-0.4 0.7 0 0.4 0.2 0.8 0.4 0.5 2.3 2.1 1.7 1.4 2.1 1.8 0.9 1 1.3 1.8 0.4 0.9 0.4 1.9 0 2-1.4 3.2-1.3 1.3-3.5 1.3-1.7 0-3-0.8-1.3-0.8-2.2-2.6l2.6-1.6q1.1 2.1 2.7 2.1 0.7 0 1.3-0.4 0.5-0.5 0.5-1.1 0-0.5-0.4-1.1-0.4-0.5-1.8-1.6-2.6-2.2-3.4-3.3-0.7-1.2-0.7-2.4 0-1.6 1.2-2.8 1.3-1.2 3.2-1.2 1.2 0 2.3 0.5 1.1 0.6 2.3 2.1z"/><path class="b" d="m149.9 50.3h3.1v6h5.4v-6h3.1v16h-3.1v-7h-5.4v7h-3.1z"/><path class="b" d="m163.5 50.3h8.9v3h-2.9v13h-3.1v-13h-2.9c0 0 0-3 0-3z"/><path fill-rule="evenodd" class="b" d="m179.4 50.3h3.1l6.2 16h-3.2l-1.2-3.3h-6.6l-1.3 3.3h-3.2zm1.6 4.3l-2.2 5.5h4.3z"/><path class="b" d="m197.3 50.3h8.8v3h-5.8v2.9h5.8v2.9h-5.8v4.2h5.8v3h-8.8z"/><path fill-rule="evenodd" class="b" d="m208.9 50.3h3.6q3.5 0 5.2 0.8 1.8 0.9 2.9 2.9 1.1 1.9 1.1 4.5 0 1.9-0.7 3.4-0.6 1.6-1.7 2.6-1 1-2.3 1.4-1.3 0.4-4.4 0.4h-3.7zm3.1 3v10.1h1.4q2.1 0 3-0.5 1-0.5 1.6-1.6 0.6-1.1 0.6-2.8 0-2.6-1.5-4-1.3-1.2-4.1-1.2c0 0-1 0-1 0z"/><path class="b" d="m224.5 50.3h3v10.4q0 1.3 0.3 1.9 0.2 0.5 0.7 0.8 0.6 0.4 1.3 0.4 0.8 0 1.4-0.4 0.6-0.4 0.8-0.9 0.3-0.6 0.3-2.2v-10h3v9.5q0 2.5-0.2 3.4-0.3 0.9-1.1 1.8-0.8 0.9-1.8 1.3-1 0.4-2.3 0.4-1.7 0-3-0.8-1.3-0.8-1.9-2-0.5-1.2-0.5-4.1c0 0 0-9.5 0-9.5z"/><path class="b" d="m237.3 50.3h8.9v3h-3v13h-3.1v-13h-2.8c0 0 0-3 0-3z"/><path class="b" d="m248.3 50.3h8.7v3h-5.7v2.9h5.7v2.9h-5.7v4.2h5.7v3h-8.7z"/><path class="b" d="m274.6 53.1l-2.1 2q-2.2-2.3-4.9-2.3-2.3 0-3.9 1.6-1.6 1.6-1.6 3.9 0 1.6 0.7 2.8 0.7 1.3 2 2 1.3 0.7 2.8 0.7 1.4 0 2.5-0.5 1.1-0.5 2.4-1.8l2.1 2.2q-1.8 1.7-3.4 2.4-1.6 0.6-3.6 0.6-3.8 0-6.1-2.3-2.4-2.4-2.4-6.1 0-2.4 1.1-4.3 1.1-1.9 3.1-3 2-1.1 4.3-1.1 2 0 3.9 0.8 1.8 0.9 3.1 2.4z"/><path class="b" d="m277.3 50.3h3.1v6h5.3v-6h3.1v16h-3.1v-7h-5.3v7h-3.1c0 0 0-16 0-16z"/><path class="a" d="m202.9 81.3c0-5 4-9 9-9h70.6c5 0 9 4 9 9v6.8c0 5-4 9-9 9h-70.6c-5 0-9-4-9-9z"/><path class="b" d="m217.1 79h1v9.5h4.1v1h-5.1z"/><path class="b" d="m224.9 78.5q0.3 0 0.5 0.3 0.3 0.2 0.3 0.6 0 0.3-0.3 0.5-0.2 0.3-0.5 0.3-0.4 0-0.6-0.3-0.3-0.2-0.3-0.5 0-0.4 0.3-0.6 0.2-0.3 0.6-0.3zm-0.5 3.2h1v7.8h-1z"/><path class="b" d="m231.5 78.7v1q-0.6-0.2-1-0.2-0.3 0-0.5 0.1-0.2 0.1-0.2 0.3-0.1 0.1-0.1 0.8v1h1.7v0.9h-1.7v6.9h-1v-6.9h-1v-0.9h1v-1.2q0-0.8 0.2-1.2 0.1-0.3 0.5-0.5 0.4-0.3 0.9-0.3 0.5 0 1.2 0.2z"/><path fill-rule="evenodd" class="b" d="m240.2 86.9l0.9 0.5q-0.4 0.8-1 1.3-0.5 0.5-1.2 0.7-0.7 0.3-1.5 0.3-1.9 0-3-1.3-1.1-1.2-1.1-2.8 0-1.4 0.9-2.6 1.2-1.5 3.1-1.5 2 0 3.2 1.5 0.8 1.1 0.8 2.7h-7q0.1 1.3 0.9 2.2 0.8 0.9 2.1 0.9 0.6 0 1.1-0.2 0.6-0.2 1-0.6 0.4-0.3 0.8-1.1zm0-2.1q-0.2-0.8-0.6-1.2-0.3-0.5-1-0.8-0.6-0.3-1.3-0.3-1.1 0-2 0.7-0.6 0.6-0.9 1.6z"/><path class="b" d="m248 87.5l0.9-0.5q0.9 1.7 2.1 1.7 0.6 0 1-0.2 0.5-0.3 0.7-0.7 0.3-0.4 0.3-0.8 0-0.6-0.4-1.1-0.5-0.7-1.8-1.7-1.3-1-1.6-1.4-0.6-0.7-0.6-1.6 0-0.7 0.4-1.3 0.3-0.5 0.9-0.8 0.6-0.4 1.3-0.4 0.7 0 1.4 0.4 0.6 0.4 1.3 1.4l-0.8 0.6q-0.6-0.8-1-1-0.4-0.3-0.9-0.3-0.7 0-1.1 0.4-0.4 0.4-0.4 1 0 0.3 0.2 0.6 0.1 0.3 0.5 0.7 0.2 0.2 1.3 1.1 1.4 1 1.9 1.8 0.5 0.7 0.5 1.5 0 1.2-0.9 2-0.8 0.9-2.1 0.9-0.9 0-1.7-0.6-0.8-0.5-1.4-1.7z"/><path class="b" d="m257 78.7h1v6.2l3.6-3.2h1.5l-4.3 3.7 4.5 4.1h-1.4l-3.9-3.5v3.5h-1c0 0 0-10.8 0-10.8z"/><path class="b" d="m265.5 78.5q0.4 0 0.6 0.3 0.2 0.2 0.2 0.6 0 0.3-0.2 0.5-0.2 0.3-0.6 0.3-0.3 0-0.6-0.3-0.2-0.2-0.2-0.5 0-0.4 0.2-0.6 0.3-0.3 0.6-0.3zm-0.5 3.2h1v7.8h-1z"/><path class="b" d="m268.8 78.7h1v10.8h-1z"/><path class="b" d="m272.5 78.7h1v10.8h-1z"/><path class="b" d="m280.3 82.6l-0.6 0.6q-0.8-0.7-1.6-0.7-0.5 0-0.8 0.3-0.3 0.3-0.3 0.7 0 0.4 0.2 0.8 0.3 0.3 1.2 0.8 1.2 0.6 1.6 1.1 0.3 0.5 0.3 1.2 0 1-0.6 1.6-0.7 0.7-1.7 0.7-0.7 0-1.3-0.3-0.6-0.3-1-0.8l0.6-0.7q0.8 0.8 1.7 0.8 0.6 0 1-0.3 0.4-0.4 0.4-0.9 0-0.5-0.3-0.8-0.3-0.3-1.2-0.8-1.1-0.6-1.5-1.1-0.3-0.5-0.3-1.2 0-0.9 0.6-1.5 0.6-0.6 1.5-0.6 1.1 0 2.1 1.1z"/><path fill-rule="evenodd" class="b" d="m266.1 30.9c0-1.1 0.9-2 2-2h17.9c1.1 0 2 0.9 2 2v14.8c0 1.1-0.9 2-2 2h-17.9c-1.1 0-2-0.9-2-2zm0.5 0v14.8c0 0.8 0.7 1.4 1.5 1.4h17.9c0.8 0 1.5-0.6 1.5-1.4v-14.8c0-0.8-0.7-1.5-1.5-1.5h-17.9c-0.8 0-1.5 0.7-1.5 1.5z"/><path fill-rule="evenodd" class="a" d="m287.7 34.1h-21.3c-0.2 0-0.3-0.1-0.3-0.3v-2.9c0-1.1 0.9-2 2-2h17.9c1.1 0 2 0.9 2 2v2.9c0 0.2-0.1 0.3-0.3 0.3zm-0.2-0.5v-2.7c0-0.8-0.7-1.4-1.5-1.4h-17.9c-0.8 0-1.5 0.6-1.5 1.4v2.7z"/><path class="a" d="m286 31.8h-8.1c-0.1 0-0.2-0.2-0.2-0.3 0-0.1 0.1-0.3 0.2-0.3h8.1c0.2 0 0.3 0.2 0.3 0.3 0 0.1-0.1 0.3-0.3 0.3z"/><path fill-rule="evenodd" class="a" d="m268.9 32.6c-0.6 0-1.1-0.5-1.1-1.1 0-0.6 0.5-1.1 1.1-1.1 0.6 0 1 0.5 1 1.1 0 0.6-0.4 1.1-1 1.1zm0.5-1.1c0-0.3-0.2-0.5-0.5-0.5-0.3 0-0.6 0.2-0.6 0.5 0 0.3 0.3 0.6 0.6 0.6 0.3 0 0.5-0.3 0.5-0.6z"/><path fill-rule="evenodd" class="a" d="m272.2 32.6c-0.6 0-1.1-0.5-1.1-1.1 0-0.6 0.5-1.1 1.1-1.1 0.5 0 1 0.5 1 1.1 0 0.6-0.5 1.1-1 1.1zm0.5-1.1c0-0.3-0.2-0.5-0.5-0.5-0.3 0-0.6 0.2-0.6 0.5 0 0.3 0.3 0.6 0.6 0.6 0.3 0 0.5-0.3 0.5-0.6z"/><path fill-rule="evenodd" class="a" d="m275.4 32.6c-0.5 0-1-0.5-1-1.1 0-0.6 0.5-1.1 1-1.1 0.6 0 1.1 0.5 1.1 1.1 0 0.6-0.5 1.1-1.1 1.1zm0.6-1.1c0-0.3-0.3-0.5-0.6-0.5-0.3 0-0.5 0.2-0.5 0.5 0 0.3 0.2 0.6 0.5 0.6 0.3 0 0.6-0.3 0.6-0.6z"/><path class="b" d="m270.3 46.4c-0.2 0-0.3-0.2-0.3-0.3v-1.6l-0.2 0.2c-0.1 0.1-0.2 0.1-0.3 0-0.1-0.1-0.1-0.2 0-0.3l0.6-0.6q0.1-0.2 0.3-0.1 0.1 0.1 0.1 0.2v2.2c0 0.1-0.1 0.3-0.2 0.3z"/><path class="c" d="m270.6 46.4h-0.7c-0.2 0-0.3-0.2-0.3-0.3 0-0.1 0.1-0.3 0.3-0.3h0.7c0.2 0 0.3 0.2 0.3 0.3 0 0.1-0.1 0.3-0.3 0.3z"/><path fill-rule="evenodd" class="b" d="m272.8 46.4c-0.6 0-1.1-0.6-1.1-1.4 0-0.7 0.5-1.3 1.1-1.3 0.6 0 1.1 0.6 1.1 1.3 0 0.8-0.5 1.4-1.1 1.4zm0.6-1.4c0-0.4-0.2-0.8-0.6-0.8-0.3 0-0.5 0.4-0.5 0.8 0 0.5 0.2 0.8 0.5 0.8 0.4 0 0.6-0.3 0.6-0.8z"/><path class="b" d="m275.7 46.4c-0.2 0-0.3-0.2-0.3-0.3v-1.6l-0.2 0.2c-0.1 0.1-0.3 0.1-0.4 0 0-0.1 0-0.2 0.1-0.3l0.6-0.6q0.1-0.2 0.3-0.1 0.1 0.1 0.1 0.2v2.2c0 0.1-0.1 0.3-0.2 0.3z"/><path class="c" d="m276 46.4h-0.7c-0.2 0-0.3-0.2-0.3-0.3 0-0.1 0.1-0.3 0.3-0.3h0.7c0.2 0 0.3 0.2 0.3 0.3 0 0.1-0.1 0.3-0.3 0.3z"/><path fill-rule="evenodd" class="b" d="m278.2 46.4c-0.6 0-1.1-0.6-1.1-1.4 0-0.7 0.5-1.3 1.1-1.3 0.6 0 1.1 0.6 1.1 1.3 0 0.8-0.5 1.4-1.1 1.4zm0.6-1.4c0-0.4-0.3-0.8-0.6-0.8-0.3 0-0.6 0.4-0.6 0.8 0 0.5 0.3 0.8 0.6 0.8 0.3 0 0.6-0.3 0.6-0.8z"/><path class="b" d="m281 46.4c-0.1 0-0.2-0.2-0.2-0.3v-1.6l-0.2 0.2c-0.1 0.1-0.3 0.1-0.4 0-0.1-0.1-0.1-0.2 0-0.3l0.7-0.6q0.1-0.2 0.2-0.1 0.2 0.1 0.2 0.2v2.2c0 0.1-0.1 0.3-0.3 0.3z"/><path class="c" d="m281.4 46.4h-0.7c-0.2 0-0.3-0.2-0.3-0.3 0-0.1 0.1-0.3 0.3-0.3h0.7c0.2 0 0.3 0.2 0.3 0.3 0 0.1-0.1 0.3-0.3 0.3z"/><path fill-rule="evenodd" class="b" d="m283.6 46.4c-0.6 0-1.1-0.6-1.1-1.4 0-0.7 0.5-1.3 1.1-1.3 0.6 0 1.1 0.6 1.1 1.3 0 0.8-0.5 1.4-1.1 1.4zm0.6-1.4c0-0.4-0.3-0.8-0.6-0.8-0.3 0-0.6 0.4-0.6 0.8 0 0.5 0.3 0.8 0.6 0.8 0.3 0 0.6-0.3 0.6-0.8z"/><path class="b" d="m270.3 42.4c-0.2 0-0.3-0.1-0.3-0.3v-1.5l-0.2 0.2c-0.1 0.1-0.2 0.1-0.3 0-0.1-0.1-0.1-0.3 0-0.4l0.6-0.6q0.1-0.1 0.3-0.1 0.1 0.1 0.1 0.3v2.1c0 0.2-0.1 0.3-0.2 0.3z"/><path class="c" d="m270.6 42.4h-0.7c-0.2 0-0.3-0.1-0.3-0.3 0-0.1 0.1-0.2 0.3-0.2h0.7c0.2 0 0.3 0.1 0.3 0.2 0 0.2-0.1 0.3-0.3 0.3z"/><path fill-rule="evenodd" class="b" d="m272.8 42.4c-0.6 0-1.1-0.6-1.1-1.4 0-0.7 0.5-1.3 1.1-1.3 0.6 0 1.1 0.6 1.1 1.3 0 0.8-0.5 1.4-1.1 1.4zm0.6-1.4c0-0.4-0.2-0.8-0.6-0.8-0.3 0-0.5 0.4-0.5 0.8 0 0.5 0.2 0.9 0.5 0.9 0.4 0 0.6-0.4 0.6-0.9z"/><path class="b" d="m275.7 42.4c-0.2 0-0.3-0.1-0.3-0.3v-1.5l-0.2 0.2c-0.1 0.1-0.3 0.1-0.4 0 0-0.1 0-0.3 0.1-0.4l0.6-0.6q0.1-0.1 0.3-0.1 0.1 0.1 0.1 0.3v2.1c0 0.2-0.1 0.3-0.2 0.3z"/><path class="c" d="m276 42.4h-0.7c-0.2 0-0.3-0.1-0.3-0.3 0-0.1 0.1-0.2 0.3-0.2h0.7c0.2 0 0.3 0.1 0.3 0.2 0 0.2-0.1 0.3-0.3 0.3z"/><path fill-rule="evenodd" class="b" d="m278.2 42.4c-0.6 0-1.1-0.6-1.1-1.4 0-0.7 0.5-1.3 1.1-1.3 0.6 0 1.1 0.6 1.1 1.3 0 0.8-0.5 1.4-1.1 1.4zm0.6-1.4c0-0.4-0.3-0.8-0.6-0.8-0.3 0-0.6 0.4-0.6 0.8 0 0.5 0.3 0.9 0.6 0.9 0.3 0 0.6-0.4 0.6-0.9z"/><path class="b" d="m281 42.4c-0.1 0-0.2-0.1-0.2-0.3v-1.5l-0.2 0.2c-0.1 0.1-0.3 0.1-0.4 0-0.1-0.1-0.1-0.3 0-0.4l0.7-0.6q0.1-0.1 0.2-0.1 0.2 0.1 0.2 0.3v2.1c0 0.2-0.1 0.3-0.3 0.3z"/><path class="c" d="m281.4 42.4h-0.7c-0.2 0-0.3-0.1-0.3-0.3 0-0.1 0.1-0.2 0.3-0.2h0.7c0.2 0 0.3 0.1 0.3 0.2 0 0.2-0.1 0.3-0.3 0.3z"/><path fill-rule="evenodd" class="b" d="m283.6 42.4c-0.6 0-1.1-0.6-1.1-1.4 0-0.7 0.5-1.3 1.1-1.3 0.6 0 1.1 0.6 1.1 1.3 0 0.8-0.5 1.4-1.1 1.4zm0.6-1.4c0-0.4-0.3-0.8-0.6-0.8-0.3 0-0.6 0.4-0.6 0.8 0 0.5 0.3 0.9 0.6 0.9 0.3 0 0.6-0.4 0.6-0.9z"/><path class="b" d="m275.4 38.5q-0.1 0-0.2 0l-0.9-0.9c-0.2-0.3-0.2-0.6 0-0.9l0.9-0.9c0.1-0.1 0.2-0.1 0.3 0 0.1 0.1 0.1 0.3 0 0.4l-0.9 0.9q0 0.1 0 0.1l0.9 0.9c0.1 0.1 0.1 0.3 0 0.4q0 0-0.1 0z"/><path class="b" d="m278.7 38.5q-0.1 0-0.1 0c-0.1-0.1-0.1-0.3 0-0.4l0.8-0.9q0.1 0 0-0.1l-0.8-0.9c-0.1-0.1-0.1-0.3 0-0.4 0.1-0.1 0.2-0.1 0.3 0l0.9 0.9c0.2 0.3 0.2 0.6 0 0.9l-0.9 0.9q-0.1 0-0.2 0z"/><path class="b" d="m276.3 39.4q-0.1 0-0.1 0c-0.2 0-0.2-0.2-0.2-0.3l1.6-4.1c0.1-0.1 0.2-0.1 0.3-0.1 0.2 0.1 0.2 0.2 0.2 0.3l-1.6 4.1q-0.1 0.1-0.2 0.1z"/><path fill-rule="evenodd" class="b" d="m243.9 48.6q-0.1 0-0.2 0-0.3 0-0.6-0.3-0.2-0.3-0.2-0.6v-1.8h-1.9c-0.7 0-1.2-0.6-1.2-1.2v-9.5c0-0.6 0.5-1.2 1.2-1.2h15.6c0.7 0 1.2 0.6 1.2 1.2v9.5c0 0.6-0.5 1.2-1.2 1.2h-8.8l-3.4 2.5q-0.2 0.2-0.5 0.2zm-3.3-13.9c-0.1 0-0.2 0.1-0.2 0.2l-0.1 10c0 0.1 0.6 0.2 0.7 0.2l2.7 0.1 0.1 3 3.6-2.9 9.8-0.2c0.1 0 0.2-0.1 0.2-0.2l-0.3-10.1c0-0.1-0.1-0.2-0.2-0.2z"/><path fill-rule="evenodd" class="b" d="m243.9 41.6c-0.9 0-1.6-0.8-1.6-1.7 0-0.8 0.7-1.6 1.6-1.6 0.9 0 1.6 0.8 1.6 1.6 0 0.9-0.7 1.7-1.6 1.7zm0.6-1.7c0-0.3-0.3-0.6-0.6-0.6-0.4 0-0.6 0.3-0.6 0.6 0 0.4 0.2 0.7 0.6 0.7 0.3 0 0.6-0.3 0.6-0.7zm4.1 1.7c-0.9 0-1.7-0.8-1.7-1.7 0-0.8 0.8-1.6 1.7-1.6 0.9 0 1.6 0.8 1.6 1.6 0 0.9-0.7 1.7-1.6 1.7zm0.6-1.7c0-0.3-0.3-0.6-0.6-0.6-0.4 0-0.7 0.3-0.7 0.6 0 0.4 0.3 0.7 0.7 0.7 0.3 0 0.6-0.3 0.6-0.7zm4.1 1.7c-0.9 0-1.7-0.8-1.7-1.7 0-0.8 0.8-1.6 1.7-1.6 0.9 0 1.6 0.8 1.6 1.6 0 0.9-0.7 1.7-1.6 1.7zm0.6-1.7c0-0.3-0.3-0.6-0.6-0.6-0.4 0-0.7 0.3-0.7 0.6 0 0.4 0.3 0.7 0.7 0.7 0.3 0 0.6-0.3 0.6-0.7z"/><path class="b" d="m261 43.9c0-0.1 0 0 0-0.1l-2.3-1.8c-0.2-0.1-0.3-0.3-0.2-0.5 0.2-0.3 0.4 0.1 0.7 0.2l1.8 1.5-0.1-2.5c0-0.3 0.3-0.3 0.6-0.3l3 0.1-0.2-10.5h-16.6v2.9c0 0.2 0 0.2-0.3 0.2-0.3 0-0.3-0.3-0.3-0.6v-3c0-0.2 0.1-0.2 0.3-0.2h16.9c0.3 0 0.5 0.2 0.5 0.5v10.7c0 0.3-0.2 0.5-0.5 0.5l-2.9-0.2 0.1 2.6c0 0.2-0.1 0.4-0.2 0.5-0.1 0-0.2 0-0.3 0z"/></svg>